<svg preserveAspectRatio="none" width="100%" height="100%" overflow="visible" style="display: block;" viewBox="0 0 7.05176 13.2227" fill="none" xmlns="http://www.w3.org/2000/svg">
<path id="Subtract" d="M0.44043 0C4.09172 0 7.05176 2.96004 7.05176 6.61133C7.05171 10.2626 4.09169 13.2227 0.44043 13.2227H0V10.4834C0.00200414 10.4837 0.00385273 10.4851 0.00585938 10.4854C0.165986 10.5084 0.334657 10.5205 0.510742 10.5205C1.44127 10.5205 2.17504 10.1851 2.71094 9.51562C3.25382 8.83878 3.52527 7.85456 3.52539 6.56445C3.52539 5.33056 3.26853 4.37793 2.75391 3.70801C2.24616 3.03807 1.52657 2.70312 0.595703 2.70312C0.387782 2.70313 0.19079 2.71937 0.00585938 2.75195C0.00390832 2.7523 0.0019485 2.75258 0 2.75293V0H0.44043ZM2.12988 6.71191C2.11573 7.5297 1.96757 8.14749 1.68555 8.56348C1.41053 8.97224 1.01833 9.17676 0.510742 9.17676C0.338351 9.17671 0.171795 9.15185 0.0117188 9.10254C0.00769832 9.1013 0.00401374 9.09892 0 9.09766V7.79102C0.00196255 7.79122 0.0038919 7.79181 0.00585938 7.79199C0.0808456 7.79875 0.158188 7.80175 0.236328 7.80176C0.532339 7.80173 0.821592 7.73815 1.10352 7.61133C1.38546 7.48445 1.62584 7.29374 1.82324 7.04004C1.95809 6.86792 2.05945 6.66413 2.12988 6.43066V6.71191ZM0.584961 4.01465C0.951665 4.01465 1.23788 4.12785 1.44238 4.35352C1.64659 4.57912 1.74902 4.87576 1.74902 5.24219C1.74892 5.49572 1.69921 5.718 1.60059 5.9082C1.50193 6.09125 1.36449 6.23611 1.18848 6.3418C1.01224 6.44746 0.806803 6.50098 0.574219 6.50098C0.356342 6.50091 0.166455 6.46062 0.00585938 6.38086C0.00379835 6.37983 0.00201239 6.37807 0 6.37695V4.14258C0.00193597 4.14157 0.00391463 4.14065 0.00585938 4.13965C0.168762 4.05629 0.362173 4.01469 0.584961 4.01465Z" fill="var(--fill-0, white)" fill-opacity="0.6"/>
</svg>
